<svg xmlns="http://www.w3.org/2000/svg" width="1200" height="360" viewBox="0 0 1200 360" role="img" aria-labelledby="title desc">
  <title id="title">Pasar Foto</title>
  <desc id="desc">Android al portapapeles de Linux mediante USB o Wi-Fi local cifrado</desc>
  <defs>
    <linearGradient id="bg" x1="0" y1="0" x2="1" y2="1">
      <stop offset="0" stop-color="#071a1a"/>
      <stop offset="0.55" stop-color="#0e4f50"/>
      <stop offset="1" stop-color="#19a7a0"/>
    </linearGradient>
    <filter id="shadow" x="-20%" y="-20%" width="140%" height="140%">
      <feDropShadow dx="0" dy="12" stdDeviation="14" flood-opacity=".28"/>
    </filter>
  </defs>
  <rect width="1200" height="360" rx="28" fill="url(#bg)"/>
  <circle cx="1060" cy="40" r="180" fill="#fff" opacity=".05"/>
  <circle cx="1100" cy="330" r="230" fill="#fff" opacity=".04"/>
  <g transform="translate(90 52)" filter="url(#shadow)">
    <rect width="138" height="256" rx="26" fill="#f7f7f2"/>
    <rect x="13" y="27" width="112" height="190" rx="12" fill="#d9f3f0"/>
    <circle cx="69" cy="236" r="8" fill="#0e7c7b"/>
    <circle cx="69" cy="105" r="34" fill="#0e7c7b"/>
    <path d="M51 106h36M69 88v36" stroke="#fff" stroke-width="8" stroke-linecap="round"/>
  </g>
  <path d="M263 180h145" stroke="#76e5dd" stroke-width="8" stroke-linecap="round" stroke-dasharray="4 20"/>
  <path d="m391 158 27 22-27 22" fill="none" stroke="#76e5dd" stroke-width="8" stroke-linecap="round" stroke-linejoin="round"/>
  <g transform="translate(450 95)" filter="url(#shadow)">
    <rect width="220" height="145" rx="14" fill="#f7f7f2"/>
    <rect x="14" y="14" width="192" height="108" rx="6" fill="#102c2c"/>
    <path d="M-18 145h256l-24 28H6z" fill="#cce2df"/>
    <rect x="75" y="47" width="70" height="45" rx="6" fill="#19a7a0"/>
    <path d="m88 79 16-16 12 12 9-9 9 13z" fill="#eafffd"/>
  </g>
  <text x="730" y="132" fill="#fff" font-family="system-ui, sans-serif" font-size="54" font-weight="750">Pasar Foto</text>
  <text x="730" y="183" fill="#bdf7f1" font-family="system-ui, sans-serif" font-size="25">Android → USB o Wi-Fi → portapapeles Linux</text>
  <text x="730" y="230" fill="#fff" opacity=".82" font-family="system-ui, sans-serif" font-size="19">Haz una foto. Pulsa enviar. Pégala en tu PC.</text>
  <g transform="translate(730 264)">
    <rect width="155" height="38" rx="19" fill="#fff" opacity=".13"/>
    <text x="77" y="25" fill="#eafffd" text-anchor="middle" font-family="system-ui, sans-serif" font-size="15">100% local</text>
    <rect x="170" width="174" height="38" rx="19" fill="#fff" opacity=".13"/>
    <text x="257" y="25" fill="#eafffd" text-anchor="middle" font-family="system-ui, sans-serif" font-size="15">Sin nube</text>
  </g>
</svg>
